<svg width="15" height="15" viewBox="0 0 15 15" fill="none" xmlns="http://www.w3.org/2000/svg">
<path d="M13.3333 0.333252H1.30208C0.770832 0.333252 0.333332 0.802002 0.333332 1.3645V13.3333C0.333332 13.8958 0.770832 14.3333 1.30208 14.3333H13.3333C13.8646 14.3333 14.3333 13.8958 14.3333 13.3333V1.3645C14.3333 0.802002 13.8646 0.333252 13.3333 0.333252ZM4.55208 12.3333H2.48958V5.677H4.55208V12.3333ZM3.52083 4.7395C2.83333 4.7395 2.30208 4.20825 2.30208 3.552C2.30208 2.89575 2.83333 2.33325 3.52083 2.33325C4.17708 2.33325 4.70833 2.89575 4.70833 3.552C4.70833 4.20825 4.17708 4.7395 3.52083 4.7395ZM12.3333 12.3333H10.2396V9.08325C10.2396 8.33325 10.2396 7.33325 9.17708 7.33325C8.08333 7.33325 7.92708 8.177 7.92708 9.052V12.3333H5.86458V5.677H7.83333V6.58325H7.86458C8.14583 6.052 8.83333 5.4895 9.83333 5.4895C11.9271 5.4895 12.3333 6.89575 12.3333 8.677V12.3333Z" fill="#5A7184"/>
</svg>
