<svg xmlns="http://www.w3.org/2000/svg" viewBox="0 0 413.495 413.495" style="enable-background:new 0 0 413.495 413.495" xml:space="preserve"><path d="M228.104 407.264c-1.231 3.808-4.763 6.231-8.561 6.231a9.013 9.013 0 0 1-2.772-.439c-7.964-2.577-12.086-2.576-20.047 0-4.728 1.531-9.803-1.063-11.333-5.792a9 9 0 0 1 5.792-11.333c11.492-3.718 19.639-3.718 31.129 0 4.73 1.529 7.322 6.603 5.792 11.333zm126.128-111.93c-8.704 12.608-23.818 20.134-40.433 20.134-14.475 0-30.656-7.4-47.788-15.235-19.447-8.894-39.558-18.09-59.264-18.214-19.706.124-39.816 9.32-59.264 18.214-17.131 7.834-33.313 15.235-47.787 15.235-16.616 0-31.73-7.526-40.432-20.134-16.52-23.935-3.796-50.982 7.43-74.846 0 0 58.027-118.688 61.089-125.108 23.779-49.863 38.754-78.358 49.768-86.131C186.13 3.198 196.226 0 206.747 0c10.522 0 20.617 3.198 29.195 9.248 11.017 7.774 25.992 36.271 49.772 86.138 3.062 6.418 61.089 125.107 61.089 125.107 11.224 23.862 23.946 50.908 7.429 74.841zm-23.717-67.179s-37.982-78.29-53.27-108.899c-2.003-4.012-4.68-9.624-7.778-16.122-10.366-21.738-34.643-72.644-43.902-79.179C220.042 20.06 213.534 18 206.747 18c-6.786 0-13.293 2.06-18.817 5.957-9.258 6.533-33.533 57.435-43.898 79.171-3.1 6.5-61.049 125.022-61.049 125.022-10.05 21.365-19.543 41.544-8.904 56.959 5.341 7.738 14.918 12.358 25.618 12.358 10.553 0 25.002-6.608 40.3-13.604 20.207-9.241 43.109-19.715 66.701-19.845h.098c23.592.129 46.494 10.604 66.701 19.845 15.298 6.996 29.748 13.604 40.302 13.604 10.699 0 20.276-4.62 25.619-12.359 10.636-15.411 1.146-35.59-8.903-56.953zm-52.431 133.912c-2.924 7.313-8.648 13.112-15.706 15.909a26.38 26.38 0 0 1-9.738 1.877c-3.799 0-7.59-.834-11.162-2.498-29.214-13.655-40.245-13.655-69.448-.006-6.674 3.105-14.096 3.328-20.912.626-7.057-2.796-12.783-8.596-15.709-15.91-5.809-14.521.591-31.516 14.266-37.883 44.266-20.691 69.872-20.694 114.147 0 13.674 6.371 20.072 23.365 14.262 37.885zm-21.862-21.566a.07.07 0 0 1-.013-.005c-39.291-18.367-59.632-18.367-98.925 0-5.086 2.368-7.445 9.182-5.163 14.885 1.113 2.783 3.112 4.865 5.627 5.862 1.535.608 3.938 1.066 6.671-.205 17.006-7.949 29.666-11.924 42.325-11.924 12.663 0 25.325 3.976 42.341 11.93 2.722 1.267 5.124.807 6.659.199 2.516-.997 4.513-3.078 5.626-5.86 2.284-5.706-.074-12.519-5.148-14.882z"/></svg>